<?xml version="1.0" encoding="UTF-8" standalone="no"?>
<!DOCTYPE svg PUBLIC "-//W3C//DTD SVG 1.1//EN"
 "http://www.w3.org/Graphics/SVG/1.1/DTD/svg11.dtd">
<!-- Generated by graphviz version 2.38.0 (20140413.2041)
 -->
<!-- Title: MDP Pages: 1 -->
<svg width="720pt" height="197pt"
 viewBox="0.00 0.00 720.00 196.66" xmlns="http://www.w3.org/2000/svg" xmlns:xlink="http://www.w3.org/1999/xlink">
<g id="graph0" class="graph" transform="scale(0.704871 0.704871) rotate(0) translate(4 275)">
<title>MDP</title>
<polygon fill="white" stroke="none" points="-4,4 -4,-275 1017.46,-275 1017.46,4 -4,4"/>
<!-- s0 -->
<g id="node1" class="node"><title>s0</title>
<ellipse fill="lightgreen" stroke="lightgreen" cx="40" cy="-103" rx="36" ry="36"/>
<ellipse fill="none" stroke="lightgreen" cx="40" cy="-103" rx="40" ry="40"/>
<text text-anchor="middle" x="40" y="-96.8" font-family="Arial" font-size="24.00">s0</text>
</g>
<!-- s0&#45;a0 -->
<g id="node2" class="node"><title>s0&#45;a0</title>
<ellipse fill="lightpink" stroke="lightpink" cx="192.577" cy="-147" rx="27.6545" ry="27.6545"/>
<text text-anchor="middle" x="192.577" y="-142" font-family="Arial" font-size="20.00">a0</text>
</g>
<!-- s0&#45;&gt;s0&#45;a0 -->
<g id="edge1" class="edge"><title>s0&#45;&gt;s0&#45;a0</title>
<path fill="none" stroke="red" stroke-width="2" d="M79.0735,-111.577C99.3931,-116.435 124.733,-122.944 147,-130 150.338,-131.058 153.79,-132.23 157.227,-133.45"/>
<polygon fill="red" stroke="red" stroke-width="2" points="156.171,-136.791 166.764,-136.959 158.588,-130.221 156.171,-136.791"/>
</g>
<!-- s0&#45;a1 -->
<g id="node4" class="node"><title>s0&#45;a1</title>
<ellipse fill="lightpink" stroke="lightpink" cx="192.577" cy="-220" rx="27.6545" ry="27.6545"/>
<text text-anchor="middle" x="192.577" y="-215" font-family="Arial" font-size="20.00">a1</text>
</g>
<!-- s0&#45;&gt;s0&#45;a1 -->
<g id="edge4" class="edge"><title>s0&#45;&gt;s0&#45;a1</title>
<path fill="none" stroke="red" stroke-width="2" d="M66.9211,-132.667C76.2366,-142.537 87.136,-153.237 98,-162 117.05,-177.365 140.454,-191.87 159.091,-202.532"/>
<polygon fill="red" stroke="red" stroke-width="2" points="157.386,-205.588 167.817,-207.443 160.82,-199.488 157.386,-205.588"/>
</g>
<!-- s0&#45;a0&#45;&gt;s0 -->
<g id="edge2" class="edge"><title>s0&#45;a0&#45;&gt;s0</title>
<path fill="none" stroke="blue" stroke-dasharray="5,2" d="M165.016,-142.698C146.094,-139.302 120.188,-133.974 98,-127 94.1908,-125.803 90.2855,-124.447 86.3924,-123.004"/>
<polygon fill="blue" stroke="blue" points="87.3907,-119.637 76.802,-119.277 84.8555,-126.161 87.3907,-119.637"/>
<text text-anchor="middle" x="122.5" y="-145.2" font-family="Arial" font-size="16.00">p = 0.5</text>
</g>
<!-- s2 -->
<g id="node3" class="node"><title>s2</title>
<ellipse fill="lightgreen" stroke="lightgreen" cx="430.154" cy="-159" rx="36" ry="36"/>
<ellipse fill="none" stroke="lightgreen" cx="430.154" cy="-159" rx="40" ry="40"/>
<text text-anchor="middle" x="430.154" y="-152.8" font-family="Arial" font-size="24.00">s2</text>
</g>
<!-- s0&#45;a0&#45;&gt;s2 -->
<g id="edge3" class="edge"><title>s0&#45;a0&#45;&gt;s2</title>
<path fill="none" stroke="blue" stroke-dasharray="5,2" d="M220.143,-148.353C258.819,-150.323 331.305,-154.016 379.91,-156.492"/>
<polygon fill="blue" stroke="blue" points="380.036,-160.002 390.201,-157.016 380.392,-153.011 380.036,-160.002"/>
<text text-anchor="middle" x="305.154" y="-162.2" font-family="Arial" font-size="16.00">p = 0.5</text>
</g>
<!-- s2&#45;a0 -->
<g id="node8" class="node"><title>s2&#45;a0</title>
<ellipse fill="lightpink" stroke="lightpink" cx="662.731" cy="-129" rx="27.6545" ry="27.6545"/>
<text text-anchor="middle" x="662.731" y="-124" font-family="Arial" font-size="20.00">a0</text>
</g>
<!-- s2&#45;&gt;s2&#45;a0 -->
<g id="edge13" class="edge"><title>s2&#45;&gt;s2&#45;a0</title>
<path fill="none" stroke="red" stroke-width="2" d="M470.375,-158.605C508.288,-157.576 567.173,-154.264 617.154,-144 620.354,-143.343 623.642,-142.525 626.912,-141.613"/>
<polygon fill="red" stroke="red" stroke-width="2" points="628.029,-144.931 636.567,-138.658 625.98,-138.238 628.029,-144.931"/>
</g>
<!-- s2&#45;a1 -->
<g id="node9" class="node"><title>s2&#45;a1</title>
<ellipse fill="lightpink" stroke="lightpink" cx="662.731" cy="-56" rx="27.6545" ry="27.6545"/>
<text text-anchor="middle" x="662.731" y="-51" font-family="Arial" font-size="20.00">a1</text>
</g>
<!-- s2&#45;&gt;s2&#45;a1 -->
<g id="edge16" class="edge"><title>s2&#45;&gt;s2&#45;a1</title>
<path fill="none" stroke="red" stroke-width="2" d="M456.579,-128.48C465.696,-119.154 476.6,-109.623 488.154,-103 531.419,-78.2 588.27,-66.0502 624.91,-60.4193"/>
<polygon fill="red" stroke="red" stroke-width="2" points="625.742,-63.8353 635.136,-58.9365 624.738,-56.9077 625.742,-63.8353"/>
</g>
<!-- s0&#45;a1&#45;&gt;s2 -->
<g id="edge5" class="edge"><title>s0&#45;a1&#45;&gt;s2</title>
<path fill="none" stroke="blue" stroke-dasharray="5,2" d="M219.837,-214.929C254.866,-207.948 318.68,-194.468 372.154,-179 375.531,-178.023 379,-176.96 382.48,-175.848"/>
<polygon fill="blue" stroke="blue" points="383.849,-179.082 392.248,-172.624 381.655,-172.435 383.849,-179.082"/>
<text text-anchor="middle" x="305.154" y="-216.2" font-family="Arial" font-size="16.00">p = 1</text>
</g>
<!-- s1 -->
<g id="node5" class="node"><title>s1</title>
<ellipse fill="lightgreen" stroke="lightgreen" cx="824.309" cy="-106" rx="36" ry="36"/>
<ellipse fill="none" stroke="lightgreen" cx="824.309" cy="-106" rx="40" ry="40"/>
<text text-anchor="middle" x="824.309" y="-99.8" font-family="Arial" font-size="24.00">s1</text>
</g>
<!-- s1&#45;a0 -->
<g id="node6" class="node"><title>s1&#45;a0</title>
<ellipse fill="lightpink" stroke="lightpink" cx="985.886" cy="-70" rx="27.6545" ry="27.6545"/>
<text text-anchor="middle" x="985.886" y="-65" font-family="Arial" font-size="20.00">a0</text>
</g>
<!-- s1&#45;&gt;s1&#45;a0 -->
<g id="edge6" class="edge"><title>s1&#45;&gt;s1&#45;a0</title>
<path fill="none" stroke="red" stroke-width="2" d="M863.531,-97.3771C889.464,-91.5267 923.525,-83.8428 948.959,-78.105"/>
<polygon fill="red" stroke="red" stroke-width="2" points="949.952,-81.469 958.936,-75.8541 948.411,-74.6406 949.952,-81.469"/>
</g>
<!-- s1&#45;a1 -->
<g id="node7" class="node"><title>s1&#45;a1</title>
<ellipse fill="lightpink" stroke="lightpink" cx="985.886" cy="-152" rx="27.6545" ry="27.6545"/>
<text text-anchor="middle" x="985.886" y="-147" font-family="Arial" font-size="20.00">a1</text>
</g>
<!-- s1&#45;&gt;s1&#45;a1 -->
<g id="edge10" class="edge"><title>s1&#45;&gt;s1&#45;a1</title>
<path fill="none" stroke="red" stroke-width="2" d="M863.837,-113.312C886.389,-118.021 915.267,-124.791 940.309,-133 943.876,-134.169 947.554,-135.508 951.196,-136.922"/>
<polygon fill="red" stroke="red" stroke-width="2" points="950.07,-140.243 960.651,-140.775 952.712,-133.76 950.07,-140.243"/>
</g>
<!-- s1&#45;a0&#45;&gt;s0 -->
<g id="edge7" class="edge"><title>s1&#45;a0&#45;&gt;s0</title>
<path fill="none" stroke="blue" stroke-dasharray="5,2" d="M963.474,-53.7646C934.012,-33.0859 878.553,-0 825.309,-0 191.577,-0 191.577,-0 191.577,-0 144.186,-0 100.753,-35.1875 72.8408,-64.4291"/>
<polygon fill="blue" stroke="blue" points="69.9662,-62.382 65.7381,-72.0966 75.1015,-67.139 69.9662,-62.382"/>
<text text-anchor="middle" x="552.654" y="-5.2" font-family="Arial" font-size="16.00">p = 0.7 &#160;reward =5</text>
</g>
<!-- s1&#45;a0&#45;&gt;s2 -->
<g id="edge9" class="edge"><title>s1&#45;a0&#45;&gt;s2</title>
<path fill="none" stroke="blue" stroke-dasharray="5,2" d="M970.179,-92.8767C966.041,-99.8269 961.738,-107.589 958.309,-115 948.039,-137.196 960.231,-152.814 940.309,-167 867.594,-218.778 592.763,-183.887 479.943,-166.845"/>
<polygon fill="blue" stroke="blue" points="480.276,-163.355 469.862,-165.304 479.218,-170.275 480.276,-163.355"/>
<text text-anchor="middle" x="737.309" y="-200.2" font-family="Arial" font-size="16.00">p = 0.2</text>
</g>
<!-- s1&#45;a0&#45;&gt;s1 -->
<g id="edge8" class="edge"><title>s1&#45;a0&#45;&gt;s1</title>
<path fill="none" stroke="blue" stroke-dasharray="5,2" d="M959.695,-61.2337C938.465,-55.2571 907.594,-49.9199 882.309,-59 874.67,-61.7432 867.325,-66.0021 860.594,-70.8598"/>
<polygon fill="blue" stroke="blue" points="858.135,-68.3406 852.423,-77.264 862.453,-73.8502 858.135,-68.3406"/>
<text text-anchor="middle" x="911.309" y="-64.2" font-family="Arial" font-size="16.00">p = 0.1</text>
</g>
<!-- s1&#45;a1&#45;&gt;s2 -->
<g id="edge12" class="edge"><title>s1&#45;a1&#45;&gt;s2</title>
<path fill="none" stroke="blue" stroke-dasharray="5,2" d="M969.759,-174.512C962.133,-183.877 952.013,-193.769 940.309,-199 756.84,-280.995 679.08,-261.7 488.154,-199 481.749,-196.897 475.43,-193.811 469.463,-190.272"/>
<polygon fill="blue" stroke="blue" points="471.306,-187.296 461.003,-184.823 467.515,-193.181 471.306,-187.296"/>
<text text-anchor="middle" x="737.309" y="-258.2" font-family="Arial" font-size="16.00">p = 0.05</text>
</g>
<!-- s1&#45;a1&#45;&gt;s1 -->
<g id="edge11" class="edge"><title>s1&#45;a1&#45;&gt;s1</title>
<path fill="none" stroke="blue" stroke-dasharray="5,2" d="M958.394,-147.727C937.471,-144.016 907.674,-137.983 882.309,-130 878.5,-128.801 874.595,-127.444 870.702,-126.001"/>
<polygon fill="blue" stroke="blue" points="871.701,-122.634 861.112,-122.273 869.165,-129.158 871.701,-122.634"/>
<text text-anchor="middle" x="911.309" y="-150.2" font-family="Arial" font-size="16.00">p = 0.95</text>
</g>
<!-- s2&#45;a0&#45;&gt;s0 -->
<g id="edge14" class="edge"><title>s2&#45;a0&#45;&gt;s0</title>
<path fill="none" stroke="blue" stroke-dasharray="5,2" d="M639.021,-114.018C632.261,-110.335 624.651,-106.904 617.154,-105 427.072,-56.7313 190.201,-81.2241 89.7024,-95.3394"/>
<polygon fill="blue" stroke="blue" points="88.9547,-91.9108 79.5531,-96.7954 89.9488,-98.8398 88.9547,-91.9108"/>
<text text-anchor="middle" x="305.154" y="-86.2" font-family="Arial" font-size="16.00">p = 0.4</text>
</g>
<!-- s2&#45;a0&#45;&gt;s1 -->
<g id="edge15" class="edge"><title>s2&#45;a0&#45;&gt;s1</title>
<path fill="none" stroke="blue" stroke-dasharray="5,2" d="M690.082,-125.202C713.025,-121.895 746.878,-117.016 774.717,-113.004"/>
<polygon fill="blue" stroke="blue" points="775.272,-116.46 784.67,-111.569 774.273,-109.531 775.272,-116.46"/>
<text text-anchor="middle" x="737.309" y="-128.2" font-family="Arial" font-size="16.00">p = 0.6</text>
</g>
<!-- s2&#45;a1&#45;&gt;s0 -->
<g id="edge17" class="edge"><title>s2&#45;a1&#45;&gt;s0</title>
<path fill="none" stroke="blue" stroke-dasharray="5,2" d="M634.867,-53.9388C567.736,-49.2213 387.339,-39.2124 238.154,-55 185.836,-60.5367 127.463,-75.9491 87.9054,-87.8304"/>
<polygon fill="blue" stroke="blue" points="86.8144,-84.5039 78.2688,-90.7669 88.8548,-91.1999 86.8144,-84.5039"/>
<text text-anchor="middle" x="305.154" y="-60.2" font-family="Arial" font-size="16.00">p = 0.3 &#160;reward =&#45;1</text>
</g>
<!-- s2&#45;a1&#45;&gt;s2 -->
<g id="edge19" class="edge"><title>s2&#45;a1&#45;&gt;s2</title>
<path fill="none" stroke="blue" stroke-dasharray="5,2" d="M644.001,-76.5595C636.457,-84.0842 627.104,-91.9769 617.154,-97 565.021,-123.32 542.31,-100.144 488.154,-122 482.617,-124.235 477.042,-127.032 471.66,-130.082"/>
<polygon fill="blue" stroke="blue" points="469.588,-127.243 462.825,-135.398 473.198,-133.241 469.588,-127.243"/>
<text text-anchor="middle" x="552.654" y="-127.2" font-family="Arial" font-size="16.00">p = 0.4</text>
</g>
<!-- s2&#45;a1&#45;&gt;s1 -->
<g id="edge18" class="edge"><title>s2&#45;a1&#45;&gt;s1</title>
<path fill="none" stroke="blue" stroke-dasharray="5,2" d="M689.37,-64.0334C712.698,-71.3427 747.719,-82.3157 776.1,-91.2083"/>
<polygon fill="blue" stroke="blue" points="775.243,-94.6074 785.832,-94.2575 777.336,-87.9276 775.243,-94.6074"/>
<text text-anchor="middle" x="737.309" y="-92.2" font-family="Arial" font-size="16.00">p = 0.3</text>
</g>
</g>
</svg>